<?xml version="1.0" encoding="UTF-8"?>
<svg width="22px" height="24px" viewBox="0 0 22 24" version="1.1" xmlns="http://www.w3.org/2000/svg" xmlns:xlink="http://www.w3.org/1999/xlink">
    <title>discord</title>
    <g id="Page-1" stroke="none" stroke-width="1" fill="none" fill-rule="evenodd">
        <g id="discord" transform="translate(0.293683, 0.000000)" fill="#353E44" fill-rule="nonzero">
            <path d="M18.9063167,0 C20.3063167,0 21.4063167,1.1 21.5063167,2.5 L21.5063167,24 L18.8063167,21.7 L17.3063167,20.4 L15.8063167,19 L16.5063167,21.2 L2.50631668,21.2 C1.10631668,21.2 0.00631667954,20.1 0.00631667954,18.7 L0.00631667954,2.5 C-0.0936833205,1.1 1.00631668,0 2.40631668,0 L18.9063167,0 L18.9063167,0 Z M12.8063167,5.7 L12.8063167,5.7 L12.6063167,5.9 C14.7063167,6.5 15.7063167,7.4 15.7063167,7.4 C14.4063167,6.7 13.2063167,6.4 12.0063167,6.3 C11.1063167,6.2 10.3063167,6.2 9.50631668,6.3 L9.30631668,6.3 C8.80631668,6.3 7.80631668,6.5 6.50631668,7 C6.00631668,7.2 5.70631668,7.4 5.70631668,7.4 C5.70631668,7.4 6.70631668,6.4 8.90631668,5.9 L8.80631668,5.8 C8.80631668,5.8 7.10631668,5.7 5.30631668,7.1 C5.30631668,7.1 3.50631668,10.2 3.50631668,14.1 C3.50631668,14.1 4.50631668,15.8 7.20631668,15.9 C7.20631668,15.9 7.60631668,15.4 8.00631668,14.9 C6.50631668,14.4 5.90631668,13.5 5.90631668,13.5 C5.90631668,13.5 6.00631668,13.6 6.20631668,13.7 L6.30631668,13.7 C6.30631668,13.7 6.30631668,13.7 6.40631668,13.7 L6.40631668,13.7 C6.40631668,13.7 6.40631668,13.7 6.50631668,13.7 C6.70631668,13.8 7.10631668,13.9 7.30631668,14 C7.80631668,14.2 8.40631668,14.4 9.10631668,14.5 C10.0063167,14.6 11.1063167,14.7 12.3063167,14.5 C12.9063167,14.4 13.5063167,14.2 14.1063167,14 C14.5063167,13.8 15.0063167,13.6 15.5063167,13.3 C15.5063167,13.3 14.9063167,14.2 13.3063167,14.7 C13.6063167,15.2 14.1063167,15.7 14.1063167,15.7 C16.8063167,15.6 17.9063167,13.9 18.0063167,14 C18.0063167,10.1 16.2063167,7 16.2063167,7 C14.5063167,5.7 13.0063167,5.7 12.8063167,5.7 L12.8063167,5.7 L12.8063167,5.7 Z M13.0063167,10.1 C13.7063167,10.1 14.3063167,10.7 14.3063167,11.4 C14.3063167,12.1 13.7063167,12.7 13.0063167,12.7 C12.3063167,12.7 11.7063167,12.1 11.7063167,11.4 C11.7063167,10.7 12.3063167,10.1 13.0063167,10.1 L13.0063167,10.1 Z M8.40631668,10.1 C9.10631668,10.1 9.70631668,10.7 9.70631668,11.4 C9.70631668,12.1 9.10631668,12.7 8.40631668,12.7 C7.70631668,12.7 7.10631668,12.1 7.10631668,11.4 C7.20631668,10.7 7.70631668,10.1 8.40631668,10.1 L8.40631668,10.1 Z" id="Shape"></path>
        </g>
    </g>
</svg>